<?xml version="1.0" standalone="no"?>
<!DOCTYPE svg PUBLIC "-//W3C//DTD SVG 20010904//EN"
 "http://www.w3.org/TR/2001/REC-SVG-20010904/DTD/svg10.dtd">
<svg version="1.0" xmlns="http://www.w3.org/2000/svg"
 width="1024.000000pt" height="1024.000000pt" viewBox="0 0 1024.000000 1024.000000"
 preserveAspectRatio="xMidYMid meet">

<g transform="translate(0.000000,1024.000000) scale(0.100000,-0.100000)"
fill="#000000" stroke="none">
<path d="M5023 7986 c-48 -15 -57 -21 -293 -171 -733 -467 -1313 -734 -1944
-896 -210 -54 -257 -99 -279 -271 -16 -131 -16 -894 1 -1063 83 -841 356
-1514 861 -2124 124 -149 405 -432 546 -549 292 -243 703 -517 1004 -670 91
-46 95 -47 185 -47 90 0 95 1 187 47 295 147 787 475 1054 702 493 421 859
909 1100 1472 230 534 337 1217 305 1948 -12 282 -21 358 -45 407 -43 85 -80
105 -307 164 -95 25 -229 62 -298 84 -512 158 -1116 460 -1685 841 -169 113
-205 130 -282 135 -42 3 -84 0 -110 -9z m337 -1075 c157 -42 274 -113 395
-236 88 -90 128 -152 181 -274 60 -137 66 -184 71 -507 l5 -292 41 -6 c105
-17 204 -106 237 -214 19 -61 20 -93 20 -698 0 -432 -4 -650 -11 -686 -40
-187 -200 -350 -382 -388 -37 -7 -294 -10 -838 -8 l-784 3 -58 23 c-124 51
-234 164 -288 299 l-24 58 -3 659 c-3 639 -2 662 18 727 34 112 139 207 248
225 l40 6 4 302 c5 345 13 389 93 553 80 161 205 294 355 376 82 45 133 64
240 88 113 25 329 21 440 -10z"/>
<path d="M4985 6618 c-144 -27 -291 -141 -359 -279 -57 -117 -66 -177 -66
-481 l0 -268 560 0 560 0 0 259 c0 379 -23 470 -154 608 -74 79 -162 131 -262
157 -68 17 -199 19 -279 4z"/>
<path d="M5063 5190 c-100 -20 -188 -94 -224 -188 -31 -83 -24 -197 16 -270
27 -49 71 -98 109 -119 14 -8 13 -33 -15 -242 -22 -162 -28 -236 -21 -243 6
-6 52 -15 102 -21 99 -12 252 1 273 22 8 8 5 54 -11 178 -13 93 -25 197 -28
233 l-5 65 50 37 c73 55 114 143 115 246 0 90 -21 146 -79 210 -66 74 -182
111 -282 92z"/>
</g>
</svg>
