<?xml version="1.0" standalone="no"?>
<!DOCTYPE svg PUBLIC "-//W3C//DTD SVG 20010904//EN"
 "http://www.w3.org/TR/2001/REC-SVG-20010904/DTD/svg10.dtd">
<svg version="1.0" xmlns="http://www.w3.org/2000/svg"
 width="1024.000000pt" height="1024.000000pt" viewBox="0 0 1024.000000 1024.000000"
 preserveAspectRatio="xMidYMid meet">

<g transform="translate(0.000000,1024.000000) scale(0.100000,-0.100000)"
fill="#000000" stroke="none">
<path d="M2482 7610 c-18 -11 -37 -32 -42 -46 -6 -14 -10 -126 -10 -248 0
-211 1 -225 21 -250 47 -60 -149 -56 2531 -56 2415 0 2453 0 2485 20 59 35 63
56 63 290 0 238 -6 266 -65 294 -30 14 -273 16 -2492 16 -2439 0 -2458 0
-2491 -20z"/>
<path d="M2653 6785 c-17 -7 -37 -23 -43 -36 -25 -46 -172 -515 -177 -563 -12
-122 42 -263 141 -362 73 -73 160 -117 266 -135 65 -10 86 -10 148 4 98 22
173 61 235 121 69 67 111 133 137 214 12 37 24 74 27 82 2 8 17 -18 32 -60 41
-112 65 -152 127 -219 102 -111 250 -165 391 -143 200 31 368 190 416 392 6
27 14 50 17 50 4 0 12 -22 19 -49 66 -258 296 -429 528 -393 200 32 363 189
416 401 l14 55 22 -74 c33 -107 63 -161 132 -235 109 -116 264 -172 409 -146
198 36 350 178 406 379 l17 63 27 -78 c65 -193 195 -316 377 -359 241 -56 502
111 568 363 12 45 15 128 15 400 l0 343 -2317 0 c-1948 -1 -2323 -3 -2350 -15z"/>
<path d="M2760 4119 c0 -929 4 -1447 10 -1459 5 -10 25 -28 44 -39 l33 -21
2054 0 c2020 0 2055 0 2086 20 66 40 63 9 63 755 l0 675 105 0 105 0 0 -282
c0 -169 4 -298 11 -321 14 -53 93 -132 144 -146 82 -23 153 -7 216 48 83 70
79 24 79 836 l0 720 -28 50 c-37 67 -95 107 -167 113 -76 6 -138 -13 -184 -58
-65 -63 -71 -96 -71 -397 l0 -263 -105 0 -105 0 0 605 0 605 -2145 0 -2145 0
0 -1441z m3841 1197 c2 -2 3 -68 1 -145 l-3 -141 -1680 0 -1679 0 0 145 0 145
1678 0 c923 0 1681 -2 1683 -4z m-1 -676 l0 -160 -1680 0 -1680 0 0 160 0 160
1680 0 1680 0 0 -160z m-2 -562 l-3 -161 -1677 -1 -1678 -1 0 162 0 163 1680
0 1680 0 -2 -162z m2 -563 l0 -155 -1680 0 -1680 0 0 155 0 155 1680 0 1680 0
0 -155z m0 -545 l0 -150 -1680 0 -1680 0 0 150 0 150 1680 0 1680 0 0 -150z"/>
</g>
</svg>
