<?xml version="1.0" standalone="no"?>
<!DOCTYPE svg PUBLIC "-//W3C//DTD SVG 20010904//EN"
 "http://www.w3.org/TR/2001/REC-SVG-20010904/DTD/svg10.dtd">
<svg version="1.0" xmlns="http://www.w3.org/2000/svg"
 width="1024.000000pt" height="1024.000000pt" viewBox="0 0 1024.000000 1024.000000"
 preserveAspectRatio="xMidYMid meet">

<g transform="translate(0.000000,1024.000000) scale(0.100000,-0.100000)"
fill="#000000" stroke="none">
<path d="M7185 7843 c-108 -29 -864 -242 -1465 -413 -410 -116 -882 -249
-1050 -296 -168 -47 -431 -121 -585 -164 -154 -43 -361 -101 -460 -129 -99
-28 -403 -113 -675 -190 -272 -76 -549 -154 -614 -172 -126 -35 -172 -59 -194
-99 -17 -33 -10 -108 14 -145 20 -30 164 -155 625 -541 145 -122 445 -374 667
-560 520 -437 498 -420 560 -444 103 -39 102 -40 959 204 742 212 1231 351
2350 669 530 150 556 161 629 260 92 123 99 218 36 452 -22 83 -81 301 -131
485 -254 943 -249 929 -323 995 -68 62 -139 89 -238 92 -47 1 -94 -1 -105 -4z"/>
<path d="M2273 5566 c-179 -52 -244 -111 -251 -230 -4 -72 -10 -47 117 -506
146 -524 144 -520 191 -572 78 -90 150 -99 342 -43 66 19 126 40 134 46 27 22
29 14 -186 784 -32 116 -77 279 -101 364 -24 89 -50 162 -61 173 -25 25 -54
22 -185 -16z"/>
<path d="M2712 5488 c-7 -7 -12 -19 -12 -27 0 -9 54 -209 121 -446 169 -601
175 -623 193 -650 21 -32 52 -32 164 -1 48 14 193 55 322 91 268 74 300 87
300 114 0 26 -36 57 -923 806 -155 131 -150 128 -165 113z"/>
<path d="M6275 5103 c-11 -3 -191 -52 -400 -110 -209 -58 -418 -115 -464 -128
-49 -13 -90 -31 -98 -41 -30 -41 -7 -193 45 -288 42 -78 124 -160 197 -197
l65 -34 0 -361 c0 -361 6 -448 37 -509 20 -40 71 -93 108 -112 80 -42 87 -43
1098 -43 l967 0 0 -323 c0 -366 3 -383 72 -462 49 -56 104 -85 173 -92 62 -7
116 15 134 53 14 32 16 2070 1 2108 -15 39 -64 59 -130 53 -94 -8 -171 -62
-218 -151 l-27 -51 -3 -317 -3 -318 -870 0 -869 0 0 278 0 277 45 24 c24 13
69 50 100 82 101 106 145 243 145 452 -1 191 -21 231 -105 210z"/>
</g>
</svg>
