<?xml version="1.0" standalone="no"?>
<!DOCTYPE svg PUBLIC "-//W3C//DTD SVG 20010904//EN"
 "http://www.w3.org/TR/2001/REC-SVG-20010904/DTD/svg10.dtd">
<svg version="1.0" xmlns="http://www.w3.org/2000/svg"
 width="512.000000pt" height="512.000000pt" viewBox="0 0 512.000000 512.000000"
 preserveAspectRatio="xMidYMid meet">

<g transform="translate(0.000000,512.000000) scale(0.100000,-0.100000)"
fill="#000000" stroke="none">
<path d="M2390 4044 c-292 -62 -526 -253 -641 -524 -49 -117 -63 -190 -62
-345 0 -218 39 -332 194 -572 155 -239 242 -437 270 -621 l13 -82 108 0 108 0
0 300 0 300 -31 55 c-42 74 -59 144 -59 243 0 96 32 207 79 276 38 54 133 144
198 185 55 35 167 77 218 83 28 3 31 0 42 -42 19 -73 16 -236 -6 -322 -27
-106 -66 -177 -176 -323 l-95 -127 0 -314 0 -314 203 0 203 0 13 78 c31 188
122 400 262 608 39 58 88 140 109 182 232 468 32 1022 -443 1224 -147 63 -358
84 -507 52z"/>
<path d="M2613 3097 c-62 -46 -108 -98 -139 -157 -20 -39 -33 -215 -17 -231
13 -13 116 117 158 200 32 64 75 189 75 217 0 22 -14 17 -77 -29z"/>
<path d="M2170 1555 c0 -210 5 -230 67 -286 26 -24 43 -49 47 -70 9 -52 40
-94 82 -115 49 -23 284 -33 354 -14 58 16 106 64 121 124 8 32 21 53 40 67 61
43 69 78 69 289 l0 190 -390 0 -390 0 0 -185z"/>
</g>
</svg>
