<?xml version="1.0" standalone="no"?>
<!DOCTYPE svg PUBLIC "-//W3C//DTD SVG 20010904//EN"
 "http://www.w3.org/TR/2001/REC-SVG-20010904/DTD/svg10.dtd">
<svg version="1.0" xmlns="http://www.w3.org/2000/svg"
 width="1024.000000pt" height="1024.000000pt" viewBox="0 0 1024.000000 1024.000000"
 preserveAspectRatio="xMidYMid meet">

<g transform="translate(0.000000,1024.000000) scale(0.100000,-0.100000)"
fill="#000000" stroke="none">
<path d="M5052 7874 c-45 -31 -52 -63 -52 -227 0 -85 5 -168 11 -185 14 -40
65 -72 114 -72 29 0 44 7 71 34 l34 34 0 185 0 185 -35 31 c-28 24 -45 31 -78
31 -23 0 -53 -7 -65 -16z"/>
<path d="M4163 7530 c-41 -25 -53 -48 -53 -105 0 -46 2 -48 117 -166 134 -137
164 -154 228 -123 63 29 92 102 64 157 -16 32 -209 226 -241 243 -37 19 -77
18 -115 -6z"/>
<path d="M5965 7538 c-31 -17 -225 -210 -241 -240 -22 -42 -18 -92 11 -127 29
-34 82 -55 118 -46 13 4 81 64 151 134 116 117 126 131 126 165 0 92 -91 155
-165 114z"/>
<path d="M5020 7219 c-163 -25 -295 -92 -416 -213 -65 -65 -90 -98 -122 -166
-65 -134 -89 -278 -61 -359 22 -63 4 -61 703 -61 l636 0 32 29 c32 29 33 31
31 109 -4 247 -154 476 -387 594 -115 58 -288 86 -416 67z"/>
<path d="M3794 6641 c-63 -39 -67 -143 -7 -190 24 -19 39 -21 200 -21 l175 0
28 28 c38 38 47 89 25 136 -28 59 -53 66 -232 66 -138 0 -162 -2 -189 -19z"/>
<path d="M6064 6641 c-63 -39 -71 -132 -14 -183 l30 -28 171 0 c192 0 221 8
245 65 18 44 18 69 -1 105 -27 53 -56 60 -237 60 -142 0 -167 -3 -194 -19z"/>
<path d="M3535 6107 c-17 -14 -32 -43 -41 -77 -124 -467 -163 -640 -154 -666
21 -55 9 -53 505 -54 492 0 488 0 514 49 5 9 19 89 31 177 11 87 32 240 46
339 26 190 24 224 -17 245 -10 6 -188 10 -438 10 l-420 0 -26 -23z"/>
<path d="M4654 6107 c-27 -23 -27 -25 -55 -318 -36 -380 -37 -422 -4 -454 l24
-25 501 0 501 0 24 25 c31 30 31 24 0 371 -13 153 -26 301 -28 328 -4 39 -10
55 -31 73 l-27 23 -439 0 -439 0 -27 -23z"/>
<path d="M5806 6109 c-18 -14 -26 -30 -26 -52 0 -32 76 -631 86 -675 3 -13 16
-35 29 -48 l24 -24 469 0 469 0 27 25 c16 15 26 35 26 52 0 15 -38 177 -85
358 -78 306 -86 332 -115 358 l-30 27 -424 0 c-413 0 -424 0 -450 -21z"/>
<path d="M3279 5112 c-29 -26 -38 -53 -175 -587 -137 -533 -144 -562 -132
-600 10 -30 22 -45 48 -58 32 -16 76 -17 567 -15 521 3 532 3 560 24 16 12 33
38 39 60 10 34 45 281 136 978 l22 168 -32 29 -32 29 -485 0 -485 0 -31 -28z"/>
<path d="M4569 5125 c-35 -19 -46 -51 -59 -180 -15 -154 -33 -321 -75 -689
-19 -175 -33 -326 -30 -336 3 -9 17 -28 31 -41 l26 -24 629 -3 c424 -2 643 1
669 8 24 6 47 21 56 36 21 31 19 55 -41 579 -25 220 -50 445 -56 500 -11 107
-25 140 -65 155 -15 6 -237 10 -542 10 -427 -1 -522 -3 -543 -15z"/>
<path d="M5955 5128 c-54 -31 -54 -53 -4 -443 16 -126 45 -350 64 -497 19
-147 40 -276 46 -286 30 -47 22 -47 590 -50 l535 -3 35 24 c68 46 69 40 -20
389 -164 640 -217 829 -240 851 -21 22 -24 22 -504 24 -352 2 -487 0 -502 -9z"/>
<path d="M4940 3210 l0 -440 -485 0 c-525 0 -534 -1 -568 -53 -24 -37 -25
-242 -1 -276 36 -50 0 -49 1232 -50 1263 -1 1204 -4 1236 58 12 22 16 59 16
136 l0 105 -34 38 -34 37 -501 3 -501 3 0 439 0 440 -180 0 -180 0 0 -440z"/>
</g>
</svg>
