<?xml version="1.0" standalone="no"?>
<!DOCTYPE svg PUBLIC "-//W3C//DTD SVG 20010904//EN"
 "http://www.w3.org/TR/2001/REC-SVG-20010904/DTD/svg10.dtd">
<svg version="1.0" xmlns="http://www.w3.org/2000/svg"
 width="1024.000000pt" height="1024.000000pt" viewBox="0 0 1024.000000 1024.000000"
 preserveAspectRatio="xMidYMid meet">

<g transform="translate(0.000000,1024.000000) scale(0.100000,-0.100000)"
fill="#000000" stroke="none">
<path d="M5000 7953 c-201 -33 -396 -183 -482 -372 -59 -129 -58 -90 -58
-1541 l0 -1327 -69 -51 c-140 -105 -290 -291 -365 -453 -80 -173 -109 -305
-109 -499 -2 -332 100 -590 327 -827 112 -118 193 -179 326 -247 168 -86 312
-124 505 -133 212 -10 387 27 580 122 303 149 528 414 620 730 36 125 46 198
46 349 0 267 -75 494 -234 716 -52 72 -188 205 -260 254 l-57 39 0 139 0 138
130 0 c150 0 189 11 220 62 39 65 15 158 -50 190 -28 14 -61 18 -167 18 l-133
0 0 234 0 235 150 3 150 3 31 32 c25 24 33 42 36 80 5 58 -10 89 -56 120 -31
21 -45 23 -172 23 l-139 0 0 230 0 230 131 0 c148 0 188 12 220 64 37 60 16
150 -43 186 -29 17 -50 20 -170 20 l-136 0 -4 363 c-4 346 -5 365 -27 427 -36
104 -79 169 -165 255 -132 131 -290 196 -471 193 -44 0 -91 -3 -105 -5z m273
-297 c110 -53 194 -164 217 -285 6 -35 10 -536 10 -1413 0 -873 4 -1366 10
-1378 5 -10 45 -43 87 -73 168 -118 282 -250 359 -412 69 -146 88 -234 88
-405 0 -117 -5 -160 -22 -223 -77 -280 -267 -503 -525 -614 -112 -49 -236 -73
-380 -73 -263 0 -455 77 -640 258 -125 123 -214 273 -258 437 -32 117 -32 336
-1 455 63 233 217 446 424 584 31 20 62 44 70 53 11 13 14 266 18 1427 l5
1411 28 60 c27 59 84 127 140 167 91 65 260 77 370 24z"/>
<path d="M5049 7187 c-18 -12 -39 -34 -46 -47 -10 -20 -13 -334 -13 -1465 l0
-1440 -71 -22 c-169 -55 -309 -203 -355 -378 -18 -67 -17 -207 1 -280 46 -175
187 -324 367 -386 83 -29 265 -32 348 -6 186 59 336 203 391 375 55 176 4 395
-124 531 -46 49 -163 123 -229 146 l-58 19 0 1433 c0 1225 -2 1439 -14 1468
-30 71 -130 97 -197 52z"/>
</g>
</svg>
